<svg height="512" viewBox="0 0 48 48" width="512" xmlns="http://www.w3.org/2000/svg"><g id="Loading_bar" data-name="Loading bar"><path d="m47 29a6 6 0 0 1 -6 6h-34a6 6 0 0 1 0-12h34a6 6 0 0 1 6 6z" fill="#dad7e5"/><path d="m45.46 33h-32.27a9.19 9.19 0 0 1 -9.19-9.19 5.86 5.86 0 0 1 3-.81h33.78a6 6 0 0 1 4.68 10z" fill="#edebf2"/><path d="m26 27v4h-19a2 2 0 0 1 -1.41-3.41c.82-.84 0-.59 20.41-.59z" fill="#9dcc6b"/><path d="m26 27v2h-17a2 2 0 0 1 -2-2z" fill="#b5e08c"/><path d="m41 22h-34a7 7 0 0 0 0 14h34a7 7 0 0 0 0-14zm0 12h-34a5 5 0 0 1 0-10h34a5 5 0 0 1 0 10z"/><path d="m26 26h-19a3 3 0 0 0 0 6h19a1 1 0 0 0 1-1v-4a1 1 0 0 0 -1-1zm-1 4h-18a1 1 0 0 1 0-2h18z"/><path d="m2 20h3a1 1 0 0 0 0-2h-2v-5a1 1 0 0 0 -2 0v6a1 1 0 0 0 1 1z"/><path d="m10 20a3 3 0 0 0 3-3v-2a3 3 0 0 0 -6 0v2a3 3 0 0 0 3 3zm-1-5a1 1 0 0 1 2 0v2a1 1 0 0 1 -2 0z"/><path d="m23 20h2a3 3 0 0 0 3-3v-2a3 3 0 0 0 -3-3h-2a1 1 0 0 0 -1 1v6a1 1 0 0 0 1 1zm1-6h1a1 1 0 0 1 1 1v2a1 1 0 0 1 -1 1h-1z"/><path d="m32 19v-6a1 1 0 0 0 -2 0v6a1 1 0 0 0 2 0z"/><path d="m16 19.32.1-.32c2.2 0 1.86-.1 2 .32a1 1 0 0 0 1.9-.64l-2-6a1 1 0 0 0 -1.9 0l-2 6a1 1 0 0 0 1.9.64zm1.28-2.32h-.56l.28-.84z"/><path d="m36 19v-2.7c2.31 3.46 2.29 3.7 3 3.7a1 1 0 0 0 1-1v-6a1 1 0 0 0 -2 0v2.7c-2.19-3.29-2.36-3.94-3.29-3.66a1 1 0 0 0 -.71.96v6a1 1 0 0 0 2 0z"/><path d="m46 15h-1a1 1 0 0 0 0 2h1a1 1 0 0 1 -2 0v-2a1 1 0 0 1 1-1h2a1 1 0 0 0 0-2h-2a3 3 0 0 0 -3 3v2a3 3 0 0 0 3 3c3.43 0 4.11-5 1-5z"/></g></svg>