<svg height="512pt" viewBox="-31 0 512 512" width="512pt" xmlns="http://www.w3.org/2000/svg"><path d="m358.75 284.402344c46.035156 0 83.351562-37.316406 83.351562-83.351563 0-42.738281-32.167968-77.953125-73.609374-82.78125-10.21875-62.816406-64.714844-110.769531-130.417969-110.769531-51.910157 0-96.820313 29.933594-118.433594 73.480469-3.035156-.273438-6.105469-.417969-9.210937-.417969-56.289063 0-101.917969 45.628906-101.917969 101.917969 0 56.289062 45.628906 101.921875 101.917969 101.921875zm0 0" fill="#ebecec"/><path d="m124.433594 284.402344c-1.5625-4.574219-3.335938-9.257813-5.339844-14.058594-52.742188-126.308594 51.773438-243.875 52.917969-245.15625-22.480469 13.003906-40.78125 32.4375-52.375 55.792969-3.03125-.273438-6.101563-.417969-9.207031-.417969-56.289063 0-101.921876 45.628906-101.921876 101.917969 0 56.289062 45.632813 101.917969 101.921876 101.917969h14.003906zm0 0" fill="#d9d9d9"/><path d="m388.011719 392.90625h-11.988281l8.136718-11.054688c4.742188-6.449218 3.363282-15.519531-3.085937-20.261718-6.445313-4.746094-15.515625-3.367188-20.261719 3.082031l-20.777344 28.234375h-21.011718v-21.011719l28.238281-20.777343c6.445312-4.742188 7.824219-13.8125 3.082031-20.261719-4.742188-6.445313-13.816406-7.828125-20.261719-3.082031l-11.054687 8.132812v-11.984375c0-8.007813-6.492188-14.496094-14.496094-14.496094s-14.492188 6.488281-14.492188 14.496094v11.984375l-11.054687-8.132812c-6.445313-4.746094-15.515625-3.367188-20.261719 3.082031-4.742187 6.449219-3.363281 15.519531 3.082032 20.261719l28.234374 20.777343v21.011719h-20.140624l-20.777344-28.234375c-4.738282-6.445313-13.8125-7.828125-20.261719-3.082031-6.445313 4.742187-7.828125 13.8125-3.082031 20.261718l8.136718 11.054688h-11.988281c-8.003906 0-14.492187 6.488281-14.492187 14.492188 0 8.003906 6.488281 14.492187 14.492187 14.492187h11.988281l-8.136718 11.054687c-4.742188 6.449219-3.363282 15.519532 3.082031 20.265626 2.589844 1.902343 5.597656 2.820312 8.578125 2.820312 4.453125 0 8.84375-2.046875 11.683594-5.90625l20.777344-28.234375h20.140624v20.140625l-28.234374 20.777344c-6.445313 4.742187-7.824219 13.816406-3.082032 20.261718 2.839844 3.859376 7.230469 5.90625 11.683594 5.90625 2.984375 0 5.992188-.917968 8.578125-2.824218l11.054687-8.132813v11.988281c0 8.003907 6.492188 14.492188 14.496094 14.492188s14.492188-6.488281 14.492188-14.492188v-11.988281l11.054687 8.136719c2.585938 1.902344 5.59375 2.820312 8.578125 2.820312 4.453125 0 8.84375-2.042968 11.683594-5.90625 4.746094-6.445312 3.367188-15.515624-3.082031-20.261718l-28.234375-20.777344v-20.140625h21.011718l20.777344 28.238281c2.839844 3.859375 7.230469 5.902344 11.683594 5.902344 2.984375 0 5.992188-.917969 8.578125-2.820312 6.445313-4.742188 7.828125-13.816407 3.082031-20.261719l-8.132812-11.054688h11.988281c8.003906 0 14.492187-6.492187 14.492187-14.496093 0-8.003907-6.492187-14.492188-14.496093-14.492188zm0 0" fill="#bbe8ee"/><path d="m188.082031 270.34375h-11.988281l8.132812-11.054688c4.746094-6.445312 3.367188-15.519531-3.082031-20.261718-6.445312-4.746094-15.519531-3.367188-20.261719 3.082031l-20.777343 28.234375h-21.011719v-21.011719l28.234375-20.777343c6.445313-4.742188 7.828125-13.8125 3.082031-20.261719-4.742187-6.445313-13.8125-7.828125-20.261718-3.082031l-11.054688 8.136718v-11.988281c0-8.003906-6.488281-14.496094-14.492188-14.496094-8.003906 0-14.492187 6.492188-14.492187 14.496094v11.988281l-11.054687-8.136718c-6.445313-4.742188-15.519532-3.363282-20.261719 3.082031-4.746094 6.449219-3.363281 15.519531 3.082031 20.261719l28.234375 20.777343v21.011719h-20.140625l-20.777344-28.234375c-4.742187-6.445313-13.816406-7.832031-20.261718-3.085937-6.449219 4.746093-7.828126 13.816406-3.085938 20.261718l8.136719 11.058594h-11.988281c-8.003907 0-14.492188 6.488281-14.492188 14.492188 0 8.003906 6.488281 14.492187 14.492188 14.492187h11.988281l-8.136719 11.054687c-4.742188 6.445313-3.363281 15.519532 3.085938 20.261719 2.585937 1.90625 5.59375 2.820313 8.578124 2.820313 4.449219 0 8.84375-2.042969 11.683594-5.902344l20.777344-28.234375h20.140625v20.140625l-28.238281 20.777344c-6.445313 4.742187-7.824219 13.8125-3.082032 20.261718 2.839844 3.859376 7.234376 5.902344 11.683594 5.902344 2.984375 0 5.992188-.917968 8.582032-2.820312l11.054687-8.136719v11.988281c0 8.003906 6.488281 14.496094 14.492187 14.496094 8.003907 0 14.492188-6.492188 14.492188-14.496094v-11.988281l11.054688 8.136719c2.585937 1.902344 5.59375 2.820312 8.578124 2.820312 4.453126 0 8.84375-2.042968 11.683594-5.902344 4.746094-6.449218 3.367188-15.519531-3.082031-20.261718l-28.234375-20.777344v-20.140625h21.011719l20.777343 28.234375c2.839844 3.859375 7.230469 5.902344 11.683594 5.902344 2.984375 0 5.992188-.914063 8.578125-2.820313 6.449219-4.742187 7.828125-13.816406 3.085938-20.261719l-8.136719-11.054687h11.988281c8.003907 0 14.492188-6.488281 14.492188-14.492187 0-8.003907-6.488281-14.492188-14.492188-14.492188zm0 0" fill="#8dcdd7"/><path d="m152.863281 116v11.753906c0 4.140625 3.359375 7.5 7.5 7.5 4.144531 0 7.5-3.359375 7.5-7.5v-11.753906c0-4.144531-3.355469-7.5-7.5-7.5-4.140625 0-7.5 3.355469-7.5 7.5zm0 0"/><path d="m282.746094 116v11.753906c0 4.140625 3.359375 7.5 7.5 7.5s7.5-3.359375 7.5-7.5v-11.753906c0-4.144531-3.359375-7.5-7.5-7.5s-7.5 3.355469-7.5 7.5zm0 0"/><path d="m235.6875 121.996094c-2.515625 2.878906-6.300781 4.53125-10.382812 4.53125-4.082032 0-7.867188-1.652344-10.382813-4.53125-2.726563-3.117188-7.460937-3.433594-10.582031-.710938-3.117188 2.730469-3.4375 7.464844-.710938 10.585938 5.363282 6.136718 13.265625 9.65625 21.675782 9.65625 8.410156 0 16.3125-3.519532 21.675781-9.65625 2.726562-3.117188 2.40625-7.855469-.710938-10.585938-3.121093-2.726562-7.855469-2.40625-10.582031.710938zm0 0"/><path d="m410.003906 407.398438c0-11.214844-8.433594-20.492188-19.292968-21.828126 3.109374-4.59375 4.355468-10.101562 3.519531-15.617187-1.609375-10.582031-11.035157-18.6875-21.734375-18.6875-6.96875 0-13.597656 3.351563-17.722656 8.960937l-18.53125 25.179688h-9.71875v-9.71875l25.179687-18.53125c4.734375-3.480469 7.824219-8.59375 8.707031-14.402344 2-13.125-8.503906-25.304687-21.753906-25.304687-4.417969 0-8.652344 1.300781-12.296875 3.769531-1.335937-10.855469-10.617187-19.289062-21.828125-19.289062-11.214844 0-20.492188 8.433593-21.828125 19.289062-3.648437-2.46875-7.878906-3.769531-12.300781-3.769531-13.265625 0-23.746094 12.199219-21.753906 25.304687.886718 5.808594 3.976562 10.921875 8.707031 14.402344l25.183593 18.53125v9.71875h-8.847656l-18.53125-25.179688c-4.125-5.609374-10.753906-8.960937-17.722656-8.960937-10.726562 0-20.117188 8.089844-21.730469 18.6875-.839843 5.515625.40625 11.023437 3.515625 15.617187-10.859375 1.335938-19.292968 10.617188-19.292968 21.828126 0 11.214843 8.4375 20.492187 19.292968 21.828124-3.109375 4.59375-4.355468 10.105469-3.515625 15.621094 1.613281 10.601563 11.003907 18.683594 21.730469 18.683594 6.96875 0 13.597656-3.347656 17.722656-8.957031l18.53125-25.179688h8.847656v8.847657l-25.179687 18.527343c-4.730469 3.480469-7.824219 8.597657-8.707031 14.40625-2 13.125 8.492187 25.300781 21.753906 25.300781 4.417969 0 8.652344-1.300781 12.296875-3.765624 1.335937 10.855468 10.617187 19.289062 21.828125 19.289062 11.214844 0 20.492188-8.433594 21.828125-19.292969 3.648437 2.46875 7.878906 3.769531 12.300781 3.769531 13.253906 0 23.746094-12.199218 21.753906-25.300781-.886718-5.808593-3.976562-10.925781-8.707031-14.40625l-25.183593-18.53125v-8.847656h9.71875l18.53125 25.179687c4.125 5.613282 10.753906 8.960938 17.722656 8.960938 10.734375 0 20.117187-8.082031 21.730468-18.6875.839844-5.511719-.40625-11.023438-3.515624-15.617188 10.859374-1.335937 19.292968-10.617187 19.292968-21.828124zm-21.992187 6.992187s-11.960938 0-11.988281 0c-6.03125 0-9.617188 7.085937-6.039063 11.945313 0 0 8.121094 11.039062 8.132813 11.054687 2.265624 3.078125 1.574218 7.523437-1.488282 9.78125-3.078125 2.265625-7.511718 1.585937-9.773437-1.488281l-20.777344-28.238282c-1.414063-1.917968-3.65625-3.054687-6.042969-3.054687h-21.011718c-4.140626 0-7.5 3.359375-7.5 7.5v20.140625c0 2.386719 1.132812 4.628906 3.054687 6.042969 0 0 28.191406 20.746093 28.238281 20.777343 3.070313 2.261719 3.742188 6.707032 1.484375 9.777344-2.261719 3.074219-6.710937 3.742188-9.773437 1.484375 0 0-11.046875-8.125-11.058594-8.132812-4.871094-3.585938-11.945312.011719-11.945312 6.039062v11.988281c0 3.855469-3.136719 6.992188-6.992188 6.992188s-6.992188-3.136719-6.992188-6.992188c0 0 0-11.9375 0-11.988281 0-6.003906-7.125-9.585937-11.945312-6.039062 0 0-11.027344 8.113281-11.054688 8.132812-3.082031 2.269531-7.511718 1.589844-9.777343-1.484375-2.265625-3.082031-1.585938-7.519531 1.488281-9.777344l28.234375-20.777343c1.917969-1.414063 3.054687-3.65625 3.054687-6.042969v-20.140625c0-4.140625-3.359374-7.5-7.5-7.5h-20.140624c-2.386719 0-4.628907 1.136719-6.042969 3.054687 0 0-20.742188 28.1875-20.777344 28.238282-2.261719 3.074218-6.710937 3.742187-9.773437 1.484375-3.070313-2.257813-3.742188-6.714844-1.488282-9.777344 0 0 8.113282-11.027344 8.132813-11.054687 3.574219-4.855469-.03125-11.945313-6.039063-11.945313h-11.988281c-3.855469 0-6.992187-3.136719-6.992187-6.992187 0-3.855469 3.136718-6.992188 6.992187-6.992188h11.988281c5.992188 0 9.601563-7.109375 6.039063-11.945312 0 0-8.125-11.042969-8.132813-11.054688-2.265625-3.078125-1.585937-7.515625 1.488282-9.777344 3.078124-2.265625 7.511718-1.589844 9.777343 1.488282l20.777344 28.234374c1.410156 1.921876 3.65625 3.054688 6.039063 3.054688h20.140624c4.144532 0 7.5-3.359375 7.5-7.5v-21.011719c0-2.386719-1.132812-4.628906-3.054687-6.042969 0 0-28.203125-20.753906-28.234375-20.777343-3.074219-2.261719-3.75-6.703125-1.488281-9.773438 2.261719-3.074219 6.707031-3.746093 9.777343-1.488281 0 0 11.03125 8.117188 11.054688 8.136719 4.867188 3.578125 11.945312-.015625 11.945312-6.042969v-11.984375c0-3.855469 3.136719-6.996094 6.992188-6.996094s6.992188 3.136719 6.992188 6.996094v11.984375c0 6.023438 7.09375 9.617188 11.945312 6.042969 0 0 11.027344-8.113281 11.058594-8.136719 3.085937-2.269531 7.511718-1.585938 9.773437 1.488281 2.265625 3.074219 1.585938 7.519531-1.484375 9.777344l-28.234375 20.777344c-1.921875 1.414062-3.054687 3.65625-3.054687 6.039062v21.011719c0 4.144531 3.355468 7.5 7.5 7.5h21.011718c2.382813 0 4.625-1.132812 6.039063-3.054688 0 0 20.734375-28.171874 20.777344-28.234374 2.265625-3.078126 6.707031-3.742188 9.777343-1.484376 3.070313 2.257813 3.746094 6.707032 1.484376 9.773438 0 0-8.121094 11.039062-8.132813 11.058594-3.574219 4.855468.023437 11.945312 6.039063 11.945312h11.988281c3.855469 0 6.992187 3.136719 6.992187 6.992188 0 3.851562-3.136718 6.988281-6.992187 6.988281zm0 0"/><path d="m449.601562 201.050781c0-44.230469-31.742187-81.722656-74.699218-89.410156-5.347656-26.3125-18.078125-50.304687-37.035156-69.671875-2.898438-2.957031-7.648438-3.007812-10.605469-.113281-2.960938 2.898437-3.011719 7.648437-.117188 10.605469 18.078125 18.472656 29.816407 41.644531 33.945313 67.015624.539062 3.308594 3.203125 5.859376 6.535156 6.246094 38.179688 4.445313 66.972656 36.832032 66.972656 75.328125 0 41.824219-34.023437 75.851563-75.847656 75.851563h-150.144531c-2.613281-6.839844-8.511719-11.960938-15.777344-13.539063-.023437-.007812-.046875-.011719-.070313-.015625-.648437-.140625-1.304687-.261718-1.976562-.339844.285156-.417968.53125-.851562.785156-1.28125 5.527344-9.5 2.96875-22.160156-5.984375-28.746093-9.613281-7.066407-23.667969-4.933594-30.742187 4.683593l-18.527344 25.179688h-9.71875v-9.71875l25.179688-18.527344c10.265624-7.554687 11.707031-23.179687 3.148437-32.597656-7.113281-7.75-19.691406-9.285156-28.496094-3.34375-1.332031-10.855469-10.613281-19.292969-21.828125-19.292969-10.953125 0-20.492187 8.429688-21.839844 19.285157-8.277343-5.589844-20.058593-4.664063-27.335937 2.199218-9.652344 9.09375-8.796875 25.675782 1.878906 33.648438.042969.03125.082031.066406.125.101562l25.179688 18.527344v9.71875h-8.847657s-18.527343-25.179688-18.53125-25.183594c-4.925781-6.84375-14-10.183594-22.207031-8.488281-.421875.085937-3.996093 1.175781-3.96875 1.21875-8.554687-14.480469-13.042969-30.898437-13.042969-47.910156 0-52.0625 42.355469-94.417969 94.417969-94.417969 2.792969 0 5.664063.128906 8.539063.386719 3.078125.28125 6.015625-1.363281 7.386718-4.132813 10.171876-20.496094 25.785157-37.808594 45.152344-50.070312 19.890625-12.589844 42.910156-19.246094 66.570313-19.246094 23.828125 0 46.996093 6.753906 66.992187 19.527344 3.488282 2.226562 8.128906 1.207031 10.359375-2.285156 2.226563-3.488282 1.207031-8.128907-2.285156-10.355469-22.414063-14.320313-48.371094-21.886719-75.066406-21.886719-26.503907 0-52.300781 7.460938-74.589844 21.574219-20.261719 12.828125-36.855469 30.597656-48.242187 51.597656-1.617188-.074219-3.226563-.109375-4.8125-.109375-60.332032 0-109.417969 49.085938-109.417969 109.417969 0 20.828125 5.820312 40.882812 16.859375 58.347656-1.019532 2.039063-1.742188 4.242187-2.09375 6.5625-.839844 5.515625.40625 11.023437 3.515625 15.617187-10.859375 1.335938-19.292969 10.617188-19.292969 21.828126 0 11.214843 8.433594 20.492187 19.292969 21.828124-3.109375 4.59375-4.355469 10.105469-3.519531 15.617188.886718 5.808594 3.976562 10.925781 8.707031 14.40625 9.652343 7.097656 23.65625 4.964844 30.75-4.679688l18.53125-25.179687h8.847656v8.847656l-25.183594 18.53125c-9.765625 7.1875-11.863281 20.980469-4.675781 30.746094 4.128906 5.609375 10.753906 8.960937 17.722656 8.960937 4.421875 0 8.652344-1.300781 12.300782-3.769531 1.335937 10.859375 10.613281 19.292969 21.828124 19.292969 11.210938 0 20.492188-8.433594 21.828126-19.292969 3.644531 2.46875 7.878906 3.769531 12.296874 3.769531 6.972657 0 13.597657-3.351562 17.726563-8.960937 3.480469-4.730469 4.914063-10.535156 4.027344-16.34375-.882813-5.804687-3.972657-10.921875-8.707031-14.402344l-25.179688-18.53125v-8.847656h9.71875s18.515625 25.164063 18.53125 25.179687c7.097656 9.648438 21.113281 11.769532 30.746094 4.679688 4.730468-3.480469 7.824218-8.597656 8.710937-14.40625.835938-5.515625-.410156-11.023438-3.519531-15.617188 8.460938-1.042968 15.433594-6.917968 18.105469-14.765624h149.863281c50.09375.003906 90.851562-40.753907 90.851562-90.847657zm-261.519531 90.777344s-11.976562 0-11.988281 0c-6.027344 0-9.617188 7.089844-6.042969 11.945313 0 0 8.128907 11.046874 8.136719 11.054687 2.261719 3.078125 1.582031 7.519531-1.488281 9.777344-3.078125 2.265625-7.515625 1.585937-9.773438-1.488281l-20.777343-28.234376c-1.414063-1.917968-3.65625-3.054687-6.042969-3.054687h-21.011719c-4.140625 0-7.5 3.359375-7.5 7.5v20.140625c0 2.386719 1.132812 4.628906 3.054688 6.042969 0 0 28.191406 20.742187 28.238281 20.777343 3.0625 2.253907 3.734375 6.71875 1.484375 9.773438-2.261719 3.078125-6.703125 3.75-9.777344 1.488281l-11.054688-8.132812c-2.277343-1.675781-5.304687-1.929688-7.828124-.652344-2.523438 1.277344-4.117188 3.863281-4.117188 6.691406v11.988281c0 3.855469-3.136719 6.992188-6.992188 6.992188-3.855468 0-6.992187-3.136719-6.992187-6.992188 0 0 0-11.964843 0-11.988281 0-4.140625-3.515625-7.582031-7.648437-7.5-1.507813.03125-3.082032 1.460938-4.296876 1.460938 0 0-11.046874 8.128906-11.054687 8.132812-3.082031 2.269531-7.511719 1.59375-9.777344-1.484375-2.285156-3.105468-1.617187-7.492187 1.488281-9.777344l28.234376-20.777343c1.921874-1.414063 3.054687-3.65625 3.054687-6.042969v-20.140625c0-4.140625-3.355469-7.5-7.5-7.5h-20.140625c-2.382812 0-4.625 1.136719-6.039062 3.054687 0 0-20.726563 28.167969-20.777344 28.234376-2.265625 3.078124-6.703125 3.75-9.777344 1.488281s-3.753906-6.695313-1.488281-9.777344c0 0 8.121093-11.035156 8.136719-11.054687 3.589843-4.878907-.015626-11.945313-6.042969-11.945313h-11.988281c-3.855469 0-6.992188-3.136719-6.992188-6.992187 0-3.855469 3.136719-6.992188 6.992188-6.992188h11.988281c2.828125 0 5.417969-1.589844 6.691406-4.117188 1.277344-2.523437 1.023437-5.550781-.652344-7.828124 0 0-8.117187-11.035157-8.132812-11.054688-2.214844-3.007812-1.539063-7.523438 1.457031-9.753906.007812-.007813.019531-.015625.027344-.023438 3.023437-2.199218 7.527344-1.574218 9.777344 1.488282l20.777343 28.234374c1.414063 1.921876 3.65625 3.054688 6.039063 3.054688h20.140625c4.015625 0 7.5-3.367188 7.5-7.5v-21.011719c0-2.386719-1.132813-4.628906-3.054688-6.042969l-28.234375-20.777343c-.015625-.007813-.027344-.023438-.039062-.03125-2.992188-2.234375-3.664063-6.734375-1.449219-9.746094 2.21875-3.011719 6.734375-3.726563 9.777344-1.484375 0 0 11.035156 8.117188 11.054687 8.132812 4.867188 3.582032 11.945313-.027343 11.945313-6.039062v-11.988281c0-3.730469 3.144531-6.992188 6.992187-6.992188 3.855469 0 6.996094 3.136719 6.996094 6.992188v11.988281c0 6.007812 7.109375 9.597656 11.941406 6.039062 0 0 11.03125-8.117187 11.058594-8.136718 3.015625-2.21875 7.558594-1.515625 9.773438 1.488281 2.246093 3.046875 1.550781 7.542969-1.484376 9.777344l-28.234374 20.777343c-1.921876 1.414063-3.054688 3.65625-3.054688 6.039063v21.015625c0 4.140625 3.355469 7.5 7.5 7.5h21.011719c2.382812 0 4.625-1.136719 6.039062-3.058594l20.777344-28.234375c2.246094-3.050781 6.71875-3.734375 9.777344-1.484375 2.992187 2.199219 3.746093 6.707032 1.484375 9.773438 0 0-8.121094 11.039062-8.132813 11.058594-3.578125 4.859374.039063 11.945312 6.039063 11.945312h11.988281c3.699219 0 6.863281 3.085938 6.976563 6.777344.117187 3.867187-3.109376 7.207031-6.972657 7.207031zm0 0"/></svg>